<svg width="25" height="24" viewBox="0 0 25 24" fill="none" xmlns="http://www.w3.org/2000/svg">
<path d="M12.5 16.875C9.93137 16.875 6.21727 13.157 5.79212 9.20805C5.78945 9.18357 5.79164 9.1588 5.79855 9.13517C5.80547 9.11153 5.81698 9.08949 5.83242 9.07031C5.84786 9.05112 5.86694 9.03517 5.88855 9.02337C5.91017 9.01157 5.9339 9.00414 5.95838 9.00152C6.06695 8.992 6.1539 9.06489 6.16491 9.16779C6.35588 10.9411 7.26366 12.8143 8.6559 14.3076C9.91688 15.6599 11.3899 16.5 12.5 16.5C14.8978 16.5 18.8746 12.5953 18.8746 8.43799C18.8746 8.33435 18.9585 8.25049 19.0621 8.25049C19.0867 8.25048 19.1111 8.25532 19.1339 8.26474C19.1566 8.27416 19.1773 8.28797 19.1947 8.30538C19.2121 8.3228 19.2259 8.34347 19.2353 8.36622C19.2447 8.38898 19.2496 8.41336 19.2496 8.43799C19.2496 12.9315 15.0428 16.875 12.5 16.875Z" fill="#BD227F"/>
<path d="M22.8112 23.9995H2.1875C2.08386 23.9995 2 23.9156 2 23.812V21.5622C2 19.9531 2.83363 19.3365 4.37164 18.7615C4.61277 18.6714 4.90278 18.5791 5.21844 18.4792C6.70864 18.0057 8.74958 17.3569 8.74958 15.9375C8.74958 15.8339 8.83344 15.75 8.93708 15.75C9.04072 15.75 9.12458 15.8339 9.12458 15.9375C9.12458 17.6315 6.93256 18.328 5.33197 18.8362C5.02292 18.9348 4.73891 19.0248 4.50294 19.1131C3.06125 19.6521 2.375 20.156 2.375 21.5622V23.6245H22.6238V21.5622C22.6238 20.156 21.9375 19.6521 20.4958 19.1131C20.26 19.0248 19.9758 18.9344 19.6664 18.8362C18.0662 18.328 15.8742 17.6315 15.8742 15.9375C15.8742 15.8339 15.9581 15.75 16.0617 15.75C16.1653 15.75 16.2492 15.8339 16.2492 15.9375C16.2492 17.3568 18.2899 18.0057 19.7799 18.4789C20.096 18.5792 20.386 18.6714 20.6269 18.7615C22.1653 19.3365 22.9987 19.9531 22.9987 21.5622V23.812C22.9987 23.8366 22.9939 23.861 22.9845 23.8837C22.975 23.9065 22.9612 23.9272 22.9438 23.9446C22.9264 23.962 22.9057 23.9758 22.883 23.9852C22.8602 23.9946 22.8358 23.9995 22.8112 23.9995Z" fill="#BD227F"/>
<path d="M8.93731 16.1249C8.83367 16.1249 8.74981 16.0411 8.74981 15.9375V14.859C8.74981 14.7554 8.83367 14.6715 8.93731 14.6715C9.04095 14.6715 9.12481 14.7554 9.12481 14.859V15.9375C9.12483 15.9621 9.11998 15.9865 9.11056 16.0093C9.10114 16.032 9.08733 16.0527 9.06992 16.0701C9.05251 16.0875 9.03183 16.1013 9.00908 16.1107C8.98632 16.1201 8.96194 16.125 8.93731 16.1249ZM16.0618 16.1249C16.0372 16.125 16.0128 16.1201 15.9901 16.1107C15.9673 16.1013 15.9467 16.0875 15.9293 16.0701C15.9119 16.0527 15.8981 16.032 15.8886 16.0092C15.8792 15.9865 15.8744 15.9621 15.8744 15.9375V14.8587C15.8744 14.755 15.9583 14.6712 16.0618 14.6712C16.1655 14.6712 16.2493 14.755 16.2493 14.8587V15.9375C16.2494 15.9621 16.2445 15.9865 16.2351 16.0093C16.2257 16.032 16.2119 16.0527 16.1945 16.0701C16.177 16.0875 16.1564 16.1013 16.1336 16.1107C16.1109 16.1201 16.0865 16.125 16.0618 16.1249ZM19.8116 7.68801C19.787 7.68802 19.7626 7.68318 19.7398 7.67376C19.7171 7.66434 19.6964 7.65053 19.679 7.63311C19.6616 7.6157 19.6478 7.59503 19.6384 7.57227C19.629 7.54952 19.6241 7.52513 19.6242 7.50051C19.6242 3.57201 16.4281 0.37593 12.4996 0.37593C8.57108 0.37593 5.375 3.57201 5.375 7.50051C5.375 7.60415 5.29114 7.68801 5.1875 7.68801C5.08386 7.68801 5 7.60415 5 7.50051C5 3.36534 8.36436 0.000976562 12.4995 0.000976562C16.6349 0.000976562 19.9991 3.36534 19.9991 7.50051C19.9991 7.52513 19.9943 7.54952 19.9848 7.57228C19.9754 7.59504 19.9616 7.61571 19.9442 7.63313C19.9268 7.65054 19.9061 7.66436 19.8834 7.67377C19.8606 7.68319 19.8362 7.68803 19.8116 7.68801Z" fill="#BD227F"/>
<path d="M21.6878 14.9997C21.6507 14.9998 21.6145 14.9888 21.5837 14.9682C19.2705 13.4259 19.61 7.7298 19.6257 7.48811C19.6327 7.38447 19.7301 7.30994 19.8249 7.31308C19.8745 7.31632 19.9208 7.33912 19.9536 7.37648C19.9864 7.41383 20.0031 7.46268 19.9999 7.5123C19.9963 7.56926 19.6579 13.2336 21.7917 14.6562C21.8252 14.6786 21.8506 14.7111 21.8642 14.7489C21.8778 14.7868 21.8788 14.828 21.8672 14.8666C21.8555 14.9051 21.8318 14.9388 21.7995 14.9628C21.7672 14.9868 21.728 14.9997 21.6878 14.9997Z" fill="#BD227F"/>
<path d="M16.8117 16.4997C16.7081 16.4997 16.6242 16.4159 16.6242 16.3122C16.6242 16.2086 16.7081 16.1247 16.8117 16.1247C19.705 16.1247 21.5513 14.6805 21.5696 14.6658C21.5888 14.6504 21.6109 14.639 21.6345 14.6321C21.6581 14.6252 21.6829 14.6231 21.7073 14.6258C21.7318 14.6285 21.7555 14.636 21.777 14.6479C21.7986 14.6598 21.8176 14.6759 21.8329 14.6951C21.8974 14.7764 21.8842 14.8944 21.8036 14.9588C21.7249 15.0218 19.8423 16.4997 16.8117 16.4997ZM3.31274 14.9998C3.28184 14.9999 3.2514 14.9923 3.22415 14.9777C3.1969 14.9631 3.17368 14.9421 3.15655 14.9163C3.14287 14.8959 3.13337 14.8729 3.12858 14.8487C3.12379 14.8246 3.12381 14.7997 3.12864 14.7756C3.13346 14.7514 3.14301 14.7284 3.15672 14.708C3.17043 14.6875 3.18803 14.67 3.20854 14.6563C5.3436 13.233 5.00399 7.56934 5.00033 7.51239C4.99718 7.46277 5.01384 7.41394 5.04666 7.37659C5.07947 7.33924 5.12576 7.31643 5.17536 7.31317C5.27732 7.30876 5.36797 7.38494 5.37458 7.4882C5.39014 7.72989 5.72999 13.426 3.41657 14.9683C3.38582 14.9888 3.34969 14.9998 3.31274 14.9998Z" fill="#BD227F"/>
<path d="M8.18715 16.4996C5.1564 16.4996 3.27399 15.0217 3.19524 14.9587C3.11452 14.8942 3.10149 14.7763 3.16594 14.695C3.19706 14.6563 3.24226 14.6314 3.29164 14.6259C3.34102 14.6205 3.39056 14.6347 3.42943 14.6657C3.44776 14.6803 5.29407 16.1246 8.18715 16.1246C8.29079 16.1246 8.37465 16.2084 8.37465 16.3121C8.37465 16.4157 8.29079 16.4996 8.18715 16.4996ZM5.21058 8.60968C5.16181 8.60988 5.11488 8.59107 5.07975 8.55725C5.04462 8.52342 5.02405 8.47723 5.02241 8.42849C5.02077 8.37974 5.03818 8.33228 5.07096 8.29617C5.10374 8.26005 5.1493 8.23813 5.19798 8.23505C10.128 7.89962 13.3343 6.41457 15.1557 5.22793C17.1277 3.94337 17.9465 2.72208 17.9545 2.7098C18.0117 2.62323 18.1284 2.5996 18.2141 2.65637C18.2556 2.68366 18.2846 2.72631 18.2947 2.77496C18.3048 2.82361 18.2952 2.87427 18.2679 2.91582C18.235 2.96616 14.8529 7.95404 5.22362 8.6093C5.21916 8.60949 5.2148 8.60968 5.21058 8.60968Z" fill="#BD227F"/>
<path d="M19.8021 7.88662C19.797 7.88662 19.7922 7.88643 19.7871 7.88606C17.2132 7.68487 14.9143 5.81306 14.8175 5.73342C14.7986 5.71776 14.7828 5.69851 14.7713 5.67678C14.7598 5.65504 14.7526 5.63124 14.7503 5.60675C14.7479 5.58225 14.7504 5.55753 14.7576 5.534C14.7648 5.51046 14.7766 5.48858 14.7923 5.46961C14.8582 5.38903 14.9765 5.37895 15.056 5.44397C15.079 5.46281 17.3622 7.32046 19.8164 7.51218C19.8409 7.51411 19.8649 7.52085 19.8868 7.53203C19.9087 7.5432 19.9283 7.55859 19.9442 7.57732C19.9602 7.59604 19.9724 7.61773 19.98 7.64115C19.9876 7.66457 19.9905 7.68925 19.9885 7.71379C19.9848 7.76075 19.9636 7.80461 19.9291 7.83664C19.8945 7.86866 19.8492 7.88651 19.8021 7.88662ZM12.5201 20.9994C10.0414 20.9994 8.74325 20.1565 8.09089 19.4494C7.37206 18.6705 7.25633 17.8912 7.25178 17.8583C7.23748 17.7565 7.30873 17.662 7.41106 17.6474C7.51067 17.6312 7.60789 17.7037 7.62308 17.8063C7.63972 17.9213 8.08541 20.6245 12.5201 20.6245C16.9521 20.6245 17.3608 17.9235 17.3758 17.8085C17.3893 17.7059 17.4838 17.632 17.5856 17.6467C17.6348 17.6529 17.6796 17.6785 17.71 17.7177C17.7404 17.7569 17.754 17.8065 17.7478 17.8558C17.7438 17.8883 17.6387 18.6683 16.9298 19.4483C16.2863 20.1557 14.9992 20.9994 12.5201 20.9994ZM19.4367 23.9992C19.333 23.9992 19.2492 23.9154 19.2492 23.8117V18.5658C19.2492 18.4621 19.333 18.3783 19.4367 18.3783C19.5403 18.3783 19.6242 18.4621 19.6242 18.5658V23.8117C19.6242 23.9154 19.5403 23.9992 19.4367 23.9992ZM5.5625 23.9992H5.56231C5.45872 23.9992 5.37481 23.915 5.375 23.8117L5.38161 18.5636C5.38171 18.5139 5.40151 18.4663 5.43666 18.4312C5.47181 18.3962 5.51945 18.3764 5.56911 18.3764H5.5693C5.67294 18.3768 5.7568 18.4607 5.75661 18.5643L5.75 23.8117C5.74996 23.8615 5.7302 23.9091 5.69504 23.9443C5.65989 23.9794 5.61222 23.9992 5.5625 23.9992Z" fill="#BD227F"/>
</svg>
