<svg width="36" height="36" viewBox="0 0 36 36" fill="none" xmlns="http://www.w3.org/2000/svg">
<rect width="36" height="36" rx="18" fill="white"/>
<path d="M27.9994 22.9201V25.9201C28.0006 26.1986 27.9435 26.4743 27.832 26.7294C27.7204 26.9846 27.5567 27.2137 27.3515 27.402C27.1463 27.5902 26.904 27.7336 26.6402 27.8228C26.3764 27.912 26.0968 27.9452 25.8194 27.9201C22.7423 27.5857 19.7864 26.5342 17.1894 24.8501C14.7733 23.3148 12.7248 21.2663 11.1894 18.8501C9.49942 16.2413 8.44769 13.2711 8.11944 10.1801C8.09446 9.90356 8.12732 9.62486 8.21595 9.36172C8.30457 9.09859 8.44702 8.85679 8.63421 8.65172C8.82141 8.44665 9.04925 8.28281 9.30324 8.17062C9.55722 8.05843 9.83179 8.00036 10.1094 8.0001H13.1094C13.5948 7.99532 14.0652 8.16718 14.4332 8.48363C14.8012 8.80008 15.0415 9.23954 15.1094 9.7201C15.2361 10.6802 15.4709 11.6228 15.8094 12.5301C15.944 12.888 15.9731 13.277 15.8934 13.651C15.8136 14.0249 15.6283 14.3682 15.3594 14.6401L14.0894 15.9101C15.513 18.4136 17.5859 20.4865 20.0894 21.9101L21.3594 20.6401C21.6313 20.3712 21.9746 20.1859 22.3486 20.1062C22.7225 20.0264 23.1115 20.0556 23.4694 20.1901C24.3767 20.5286 25.3194 20.7635 26.2794 20.8901C26.7652 20.9586 27.2088 21.2033 27.526 21.5776C27.8431 21.9519 28.0116 22.4297 27.9994 22.9201Z" stroke="black" stroke-width="2" stroke-linecap="round" stroke-linejoin="round"/>
</svg>
