<svg width="24" height="25" viewBox="0 0 24 25" fill="none" xmlns="http://www.w3.org/2000/svg">
<path d="M14.7339 4.51882C13.3377 4.51901 12.2055 5.6508 12.2055 7.04724C12.2057 7.73799 12.483 8.36355 12.9318 8.81957C13.0076 8.89678 13.0503 8.9392 13.0917 9.03558C13.1329 9.13216 13.1208 9.29142 13.1002 9.41447C12.9586 10.2505 12.6952 10.8753 12.3873 11.3435C12.9745 12.0062 13.6172 12.1043 13.6485 12.1087L13.7698 12.1223C13.9825 11.5718 14.3109 10.8308 14.5525 10.1533C14.6234 9.95396 14.7211 9.75075 14.8363 9.66975C14.9518 9.58856 15.218 9.54045 15.4432 9.47487C16.4941 9.16819 17.2623 8.19754 17.2623 7.04721C17.2623 5.65077 16.1305 4.51901 14.7339 4.51882ZM16.1006 7.04721C16.1009 7.80221 15.4889 8.41422 14.7339 8.41387C13.9791 8.41403 13.3671 7.80203 13.3673 7.04721C13.3673 6.29257 13.9793 5.68056 14.7341 5.68073C15.4886 5.68056 16.1006 6.29257 16.1006 7.04721Z" fill="#AA2F4C"/>
<path d="M10.9007 9.41061C10.8798 9.28792 10.868 9.12863 10.909 9.03191C10.9502 8.93534 10.9929 8.89292 11.0687 8.81572C11.5179 8.35967 11.7948 7.73411 11.795 7.04336C11.795 5.64692 10.6632 4.51513 9.2668 4.51513C7.8702 4.51499 6.73825 5.64694 6.73858 7.04336C6.73858 8.19368 7.50658 9.16447 8.55769 9.47101C8.7827 9.53645 9.04888 9.58457 9.16433 9.66571C9.27979 9.7469 9.37705 9.9501 9.44821 10.1493C9.7968 11.1266 10.3259 12.2365 10.4284 12.7149C10.4284 12.7149 11.1117 21.8031 11.2485 22.9649C11.3852 24.1266 11.5901 24.5365 12 24.5365C12.41 24.5366 12.6153 24.1264 12.7519 22.9649C12.8884 21.8033 13.5716 12.715 13.5716 12.715C13.5716 12.715 11.4191 12.4761 10.9007 9.41061ZM7.90015 7.04355C7.89999 6.28873 8.51199 5.67673 9.26683 5.67687C10.0215 5.67687 10.6333 6.28871 10.6333 7.04333C10.6336 7.79836 10.0216 8.41036 9.2668 8.4102C8.51199 8.41003 7.90015 7.79819 7.90015 7.04355ZM12.4784 13.6032C12.4784 13.8677 12.2643 14.0818 12 14.0816C11.7357 14.0814 11.5217 13.8675 11.5216 13.6032C11.5217 13.3392 11.7358 13.1251 12 13.1248C12.2643 13.125 12.478 13.3391 12.4784 13.6032Z" fill="#AA2F4C"/>
</svg>
