<svg width="209" height="230" viewBox="0 0 209 230" fill="none" xmlns="http://www.w3.org/2000/svg">
<path d="M93.1015 211.099C94.7072 215.647 98.0254 219.285 102.443 221.35C106.857 223.414 111.832 223.652 116.452 222.018C118.03 221.461 119.501 220.709 120.842 219.784C123.428 218 125.525 215.58 126.933 212.696C129.072 208.314 129.369 203.398 127.763 198.854C126.157 194.306 122.839 190.667 118.421 188.603C114.008 186.538 109.032 186.301 104.413 187.934C94.8575 191.312 89.7832 201.702 93.1015 211.099ZM117.978 189.548C122.139 191.494 125.264 194.919 126.774 199.202C128.285 203.481 128.008 208.113 125.991 212.238C123.974 216.367 120.462 219.491 116.1 221.03C111.741 222.568 107.047 222.347 102.882 220.401C98.7215 218.455 95.5971 215.03 94.0863 210.747C91.4799 203.367 94.375 195.33 100.632 191.019C101.878 190.161 103.262 189.449 104.757 188.919C109.115 187.38 113.81 187.602 117.974 189.548H117.978Z" fill="#565656"/>
<path d="M41.5521 52.2302C29.7622 28.777 19.6493 8.33362 17.5729 4.1255C17.2644 3.50457 17.3554 2.76103 17.7944 2.27852C18.1306 1.91071 18.6052 1.72483 19.0996 1.76042C19.5939 1.79997 20.0329 2.05704 20.3098 2.47232C28.8407 15.3735 66.6228 72.5866 81.814 96.8505C83.2457 98.472 84.63 100.046 85.9549 101.561C73.8526 81.6356 30.4109 15.8481 21.1799 1.89488C20.729 1.21066 19.9973 0.779575 19.1787 0.716295C18.36 0.653015 17.5729 0.965474 17.0192 1.57059C16.2915 2.3695 16.1373 3.57971 16.6316 4.58823C18.6131 8.5986 27.8836 27.3493 38.9537 49.3944C39.8119 50.3318 40.678 51.277 41.5481 52.2302H41.5521Z" fill="#565656"/>
<path d="M101.273 165.925C97.3413 153.763 94.1536 138.117 92.01 125.999C91.6105 125.762 91.215 125.524 90.8235 125.291C92.971 137.559 96.2339 153.735 100.28 166.245C102.823 174.111 108.854 180.352 116.828 183.358C123.251 185.783 128.309 191.055 130.698 197.818C132.762 203.659 132.588 209.892 130.211 215.374C127.838 220.844 123.555 224.905 118.153 226.816C112.746 228.726 106.861 228.255 101.581 225.491C96.2893 222.718 92.2354 217.976 90.1748 212.135C87.6476 204.984 88.5375 197.122 92.5518 191.106C96.6887 184.905 98.0255 177.109 96.2102 169.721C95.7593 167.89 95.2293 165.897 94.6321 163.805C90.3845 148.926 84.3531 134.296 76.7002 120.323C75.6995 118.492 74.6238 116.507 73.4927 114.395C72.5474 113.236 71.3016 111.642 69.8105 109.696C71.9818 113.806 73.9949 117.559 75.7826 120.826C83.396 134.727 89.3997 149.286 93.6275 164.089C94.2208 166.17 94.7508 168.147 95.1937 169.967C96.9379 177.07 95.6565 184.564 91.6777 190.521C87.4815 196.809 86.5521 205.016 89.1861 212.479C91.3376 218.57 95.5655 223.517 101.095 226.412C106.636 229.315 112.817 229.806 118.497 227.797C120.28 227.168 121.949 226.313 123.472 225.261C126.806 222.964 129.46 219.72 131.168 215.785C133.652 210.062 133.834 203.552 131.683 197.466C129.191 190.41 123.911 184.909 117.195 182.377C109.523 179.482 103.717 173.483 101.273 165.921V165.925Z" fill="#565656"/>
<path d="M207.132 186.249C207.049 186.309 206.962 186.36 206.871 186.411C206.661 186.526 206.44 186.613 206.207 186.668L197.98 188.745C193.262 189.935 188.302 189.318 184.019 187.009L182.433 186.154C180.784 185.264 178.775 185.66 177.545 187.111L177.521 187.139C169.484 196.611 154.661 197.296 144.481 188.658C138.774 183.817 135.515 176.923 135.539 169.745C135.566 161.542 132.027 153.984 125.829 149.005C108.763 135.297 81.3592 119.971 76.0397 117.037C75.2882 116.621 74.6238 116.08 74.0661 115.419C64.9301 104.638 11.6641 30.5013 1.07659 15.7491C0.598035 15.0807 0.455662 14.2462 0.689007 13.4592C0.922352 12.6722 1.49188 12.0473 2.2552 11.7467C3.25977 11.3512 4.44625 11.6359 5.20957 12.4586C11.7274 19.4827 69.5614 81.8846 92.7654 109.123C103.044 121.189 114.506 131.983 126.838 141.206C128.566 142.499 130.227 143.693 131.77 144.765C137.789 148.926 145.244 150.397 152.229 148.803C159.597 147.122 167.598 149.175 173.633 154.297C180.254 159.913 183.576 168.464 182.307 176.603C182.049 178.248 182.86 179.882 184.316 180.669L186.724 181.966C189.746 183.595 193.238 184.03 196.568 183.192L204.795 181.116C206.325 180.732 207.884 181.661 208.271 183.192C208.568 184.363 208.097 185.577 207.124 186.249H207.132ZM177.735 185.541C179.253 184.493 181.27 184.335 182.931 185.233L184.517 186.087C188.571 188.274 193.262 188.856 197.727 187.732L205.95 185.66C206.096 185.624 206.238 185.569 206.373 185.494C207.104 185.094 207.472 184.26 207.267 183.449C207.021 182.476 206.033 181.887 205.06 182.132L196.833 184.208C193.25 185.11 189.489 184.643 186.238 182.891L183.829 181.594C181.982 180.598 180.958 178.529 181.282 176.445C182.496 168.657 179.309 160.478 172.965 155.096C167.183 150.188 159.518 148.218 152.47 149.828C145.201 151.485 137.441 149.958 131.184 145.631C129.626 144.556 127.957 143.349 126.221 142.052C113.83 132.782 102.309 121.937 91.9783 109.811C68.7111 82.5016 10.9048 20.1392 4.45022 13.1823C3.97957 12.6722 3.25185 12.4902 2.64278 12.7315C2.18004 12.9134 1.83595 13.2931 1.69357 13.7677C1.55514 14.2423 1.63821 14.7485 1.92692 15.1519C12.5065 29.9001 65.7527 104.005 74.865 114.759C75.3396 115.32 75.9052 115.783 76.5459 116.135C81.8812 119.074 109.353 134.443 126.486 148.202C132.932 153.379 136.614 161.238 136.583 169.761C136.559 176.627 139.684 183.228 145.153 187.871C154.891 196.133 169.049 195.508 176.718 186.475L177.141 186.783L176.742 186.447C177.035 186.099 177.367 185.802 177.731 185.553L177.735 185.541ZM169.196 186.479C166.609 188.262 163.599 189.358 160.404 189.647C155.547 190.086 150.848 188.61 147.17 185.49C139.573 179.043 138.726 167.51 145.284 159.782C151.841 152.054 163.358 151.014 170.956 157.465C174.634 160.585 176.853 164.979 177.209 169.844C177.564 174.705 176.014 179.439 172.842 183.172L172.443 182.832L172.842 183.172C171.759 184.446 170.533 185.557 169.192 186.479H169.196ZM149.516 157.35C148.266 158.208 147.111 159.244 146.083 160.459C139.897 167.748 140.692 178.62 147.851 184.695C151.311 187.633 155.737 189.022 160.313 188.606C164.893 188.191 169.061 186.02 172.051 182.496C175.045 178.972 176.509 174.503 176.172 169.919C175.836 165.339 173.748 161.198 170.287 158.26C164.319 153.193 155.776 153.039 149.52 157.35H149.516Z" fill="#565656"/>
<path d="M68.4256 90.4591C66.5114 90.8388 65.0125 92.4445 64.7633 94.3745C64.5062 96.3679 65.6571 98.3335 67.5081 99.1008C69.2799 99.8364 71.3721 99.346 72.6575 97.9222C74.1129 96.3125 74.1485 94.07 73.1835 92.2191C71.9693 90.8506 70.2687 90.0913 68.4256 90.4591ZM71.0518 97.7917C69.5133 98.8516 67.4092 98.464 66.3493 96.9255C65.2893 95.387 65.6769 93.283 67.2154 92.223C68.7539 91.1631 70.8579 91.5507 71.9179 93.0892C72.9778 94.6277 72.5903 96.7317 71.0518 97.7917Z" fill="#565656"/>
<path d="M67.6941 92.9111C67.3104 93.1722 67.0257 93.5242 66.8438 93.9157C67.7178 93.8485 68.6077 94.2321 69.1376 95.0073C69.6716 95.7825 69.7151 96.7475 69.3394 97.5385C69.7704 97.5068 70.2015 97.3645 70.5812 97.0995C71.7361 96.3045 72.0287 94.7146 71.2338 93.5598C70.4388 92.4049 68.8489 92.1122 67.6941 92.9072V92.9111Z" fill="#565656"/>
<path d="M204.929 181.622L196.707 183.694C193.254 184.564 189.623 184.114 186.487 182.425L184.078 181.128C182.417 180.23 181.507 178.387 181.8 176.52C183.002 168.808 180.036 160.403 173.305 154.692C167.163 149.48 159.316 147.724 152.355 149.314C145.141 150.959 137.567 149.404 131.481 145.196C129.859 144.077 128.198 142.875 126.533 141.629C113.972 132.232 102.546 121.407 92.3736 109.467C86.5756 102.664 78.6695 93.7181 69.9488 84.0006L70.5262 84.8431C69.8024 85.3414 63.9846 89.2647 61.3822 91.0208C60.6782 91.4954 59.7291 91.3411 59.2109 90.6688C52.4202 81.857 0.692752 14.3294 1.49957 15.4526C11.4662 29.3425 65.3056 104.286 74.4614 115.091C74.9756 115.696 75.5926 116.202 76.2886 116.586C81.7228 119.584 109.064 134.878 126.153 148.606C132.545 153.739 136.084 161.554 136.057 169.753C136.033 176.48 139.039 183.362 144.813 188.262C154.787 196.726 169.247 196.073 177.113 186.803L177.137 186.775C178.506 185.154 180.807 184.687 182.674 185.696L184.26 186.55C188.429 188.8 193.254 189.397 197.846 188.239L206.072 186.166C206.266 186.119 206.448 186.044 206.614 185.953C207.531 185.454 208.034 184.382 207.769 183.323C207.452 182.069 206.179 181.309 204.925 181.626L204.929 181.622ZM63.7276 95.217C63.6722 92.935 65.1118 90.827 67.2831 90.0874C69.5453 89.3162 71.8986 90.2693 73.1839 92.2191C74.3704 93.8684 74.5919 95.9724 73.5716 97.7719C72.4325 99.7811 69.9923 100.79 67.7617 100.232C65.4757 99.6585 63.7869 97.5781 63.7315 95.217H63.7276ZM103.436 130.958C98.6462 127.976 93.8211 125.05 88.9763 122.155C86.714 120.802 84.4438 119.461 82.1697 118.128C80.999 117.44 79.8244 116.76 78.6498 116.08C77.6017 115.475 76.4982 114.949 75.7072 114.007C72.6975 110.42 70.0595 106.481 67.3582 102.66C69.8855 105.816 72.385 108.992 74.9756 112.097C75.8061 113.094 76.5536 114.051 77.7124 114.668C78.8238 115.261 79.9351 115.858 81.0425 116.463C83.4116 117.757 85.7648 119.078 88.1062 120.418C97.5349 125.825 106.77 131.599 115.613 137.919C119.663 140.814 123.567 143.875 127.395 147.051C119.628 141.352 111.607 136.048 103.428 130.958H103.436ZM152.996 190.873C144.287 188.385 138.402 179.779 139.054 170.777C139.383 166.276 141.218 162.211 144.164 158.829C141.831 161.962 140.281 165.497 139.897 169.413C139.482 173.629 140.427 177.987 142.665 181.594C147.028 188.622 155.511 192.075 163.544 190.22C167.538 189.299 171.185 187.143 173.949 184.121C169.093 190.382 160.578 193.04 152.992 190.873H152.996ZM172.443 182.828C166.071 190.335 154.886 191.347 147.506 185.086C140.126 178.826 139.308 167.621 145.679 160.115C152.051 152.608 163.235 151.596 170.615 157.856C177.995 164.117 178.814 175.322 172.443 182.828ZM198.443 185.466C195.215 186.348 192.032 186.696 188.753 185.814C187.163 185.387 185.724 184.683 184.272 183.924C182.722 183.113 181.294 182.33 180.337 180.803C179.566 179.577 179.202 178.106 179.301 176.658C179.403 175.195 179.597 173.779 179.534 172.304C179.245 165.272 175.128 158.679 169.298 154.862C166.597 153.094 163.512 151.912 160.321 151.429C158.644 151.176 156.939 151.133 155.254 151.291C153.589 151.445 151.964 151.853 150.306 152.066C146.719 152.533 142.994 152.193 139.517 151.232C136.195 150.314 133.185 148.772 130.357 146.826C132.94 148.424 135.633 149.733 138.568 150.547C141.977 151.497 145.564 151.821 149.084 151.453C150.647 151.287 152.161 150.935 153.7 150.638C155.329 150.326 157.01 150.219 158.663 150.294C161.922 150.449 165.154 151.37 168.045 152.869C174.266 156.092 178.747 162.045 180.175 168.887C180.511 170.496 180.645 172.185 180.562 173.831C180.503 175.013 180.222 176.192 180.246 177.374C180.277 179.035 181.013 180.637 182.255 181.745C183.39 182.757 184.964 183.477 186.313 184.153C189.651 185.83 193.475 186.261 197.114 185.45C199.886 184.833 202.647 184.177 205.415 183.544C203.09 184.189 200.768 184.829 198.443 185.466Z" fill="#565656"/>
<path d="M100.775 166.091C98.0615 157.69 94.1698 147.811 92.2635 138.41C91.8443 136.638 90.1199 125.081 73.8728 116.19L72.7258 113.446C72.4015 113.038 72.0495 112.595 71.6777 112.113C73.3111 115.186 74.8417 118.029 76.2418 120.584C83.7761 134.344 89.8233 148.871 94.1303 163.955C94.7038 165.956 95.2337 167.938 95.7044 169.852C97.4683 177.038 96.2225 184.667 92.1172 190.821C88.1543 196.758 86.9994 204.715 89.6849 212.313C94.0433 224.648 106.865 231.364 118.331 227.314C129.793 223.264 135.555 209.983 131.197 197.648C128.673 190.505 123.31 185.249 117.018 182.872C109.349 179.977 103.306 173.886 100.783 166.087L100.775 166.091ZM93.8455 217.003C91.3064 213.357 89.8668 209.006 89.6928 204.573C89.5425 200.756 90.373 196.837 92.2082 193.475C93.1692 191.715 94.3439 190.093 95.2495 188.298C96.2264 186.36 96.966 184.284 97.4525 182.172C98.4373 177.916 98.3819 173.657 97.6225 169.377C98.548 172.945 98.9316 176.56 98.5045 180.238C98.026 184.375 96.6219 188.282 94.4467 191.822C93.3432 193.617 92.3861 195.425 91.7533 197.446C91.1284 199.439 90.8318 201.508 90.7646 203.592C90.638 207.515 91.6386 211.514 93.45 214.982C95.4789 218.862 98.5243 221.931 102.246 224.194C98.8763 222.493 95.997 220.108 93.8337 216.999L93.8455 217.003ZM116.278 221.532C106.996 224.81 96.8197 220.057 93.5964 210.932C90.373 201.808 95.3049 191.715 104.587 188.436C113.87 185.158 124.046 189.912 127.269 199.036C130.493 208.16 125.561 218.253 116.278 221.532ZM129.737 198.454C131.683 203.983 130.892 210.209 127.7 215.117C126.146 217.51 124.085 219.479 121.673 220.994C125.739 217.719 128.61 213.163 129.437 207.966C130.326 202.37 128.717 196.544 125.09 192.194C123.397 190.161 121.329 188.591 119.043 187.282C124.014 189.401 127.926 193.317 129.737 198.458V198.454Z" fill="#565656"/>
<path d="M1.69336 13.7559C1.69336 13.7559 56.8142 84.7837 58.9855 87.5364C59.4047 88.0347 60.0217 88.3669 60.6664 88.4618C61.311 88.5568 66.7175 88.2522 70.5262 84.8351L68.2679 82.1694C66.765 83.1503 62.2998 86.0532 61.5602 86.5358C61.3625 86.6663 61.1449 86.7137 60.9195 86.6821C60.698 86.6504 60.4923 86.5397 60.35 86.3697C58.1787 83.6447 1.69336 13.7559 1.69336 13.7559Z" fill="#565656"/>
<path d="M49.7109 46.2383C49.7109 46.2383 50.0273 46.7366 50.5969 47.6344C51.4828 48.9791 51.3444 48.7537 49.7109 46.2383Z" fill="#565656"/>
<path d="M17.6201 1.7247C24.7984 15.587 33.0842 30.5567 39.6613 42.2002C46.8001 54.8443 80.4255 95.1853 82.1183 97.1509C82.1183 97.1509 55.8017 55.8014 50.6009 47.6304C46.9702 42.1329 26.1748 10.3941 20.7485 2.18349C20.0406 1.11564 18.5772 0.929737 17.6241 1.72074L17.6201 1.7247ZM47.8956 44.0076C48.8369 45.4472 77.2932 89.937 77.2932 89.937C77.2932 89.937 47.5713 46.5823 46.6301 45.1427C31.518 22.1325 20.0485 2.64622 20.0485 2.64622C20.0485 2.64622 32.7796 20.9856 47.8956 44.0076Z" fill="#565656"/>
</svg>
